<mxfile host="app.diagrams.net" modified="2023-05-27T01:57:11.596Z" agent="Mozilla/5.0 (Macintosh; Intel Mac OS X 10_15_7) AppleWebKit/537.36 (KHTML, like Gecko) Chrome/113.0.0.0 Safari/537.36 Edg/113.0.1774.50" version="21.3.4" etag="tSQJUkF9TZVyq3CQxd3Q" type="github">
  <diagram name="Page-1" id="3H5KqtnuLIr-e1t-vTnd">
    <mxGraphModel>
      <root>
        <mxCell id="0" />
        <mxCell id="1" parent="0" />
      </root>
    </mxGraphModel>
  </diagram>
</mxfile>
